# xmcd CD database file
#
# Track frame offsets:
#	150
#	19890
#	38715
#	53267
#
# Disc length: 973 seconds
#
# Revision: 0
# Processed by: cddbd v1.5.1PL0 Copyright (c) Steve Scherf et al.
# Submitted via: CDex 1.51
#
DISCID=2303cb04
DTITLE=米倉千尋 - Bridge
DYEAR=2002
DGENRE=JPop
TTITLE0=Bridge
TTITLE1=stars
TTITLE2=I SAW THE LIGHT
TTITLE3=Bridge (instrumental[)
EXTD=YEAR: 2002
EXTT0=
EXTT1=
EXTT2=
EXTT3=
PLAYORDER=
